HIERARCHY
ROOT root
{
	OFFSET 0.000000 0.000000 0.000000
	CHANNELS 6 Xposition Yposition Zposition Zrotation Yrotation Xrotation
	JOINT lhip
	{
		OFFSET 0.058581 -0.082280 -0.017664
		CHANNELS 3 Zrotation Yrotation Xrotation
		JOINT lknee
		{
			OFFSET 0.043451 -0.386469 0.008037
			CHANNELS 3 Zrotation Yrotation Xrotation
			JOINT lankle
			{
				OFFSET -0.014790 -0.426874 -0.037428
				CHANNELS 3 Zrotation Yrotation Xrotation
				JOINT ltoe
				{
					OFFSET 0.041054 -0.060286 0.122042
					CHANNELS 3 Zrotation Yrotation Xrotation
					End Site
					{
						OFFSET 0.000000 0.000000 0.000000
					}
				}
			}
		}
	}
	JOINT rhip
	{
		OFFSET -0.060310 -0.090513 -0.013543
		CHANNELS 3 Zrotation Yrotation Xrotation
		JOINT rknee
		{
			OFFSET -0.043257 -0.383688 -0.004843
			CHANNELS 3 Zrotation Yrotation Xrotation
			JOINT rankle
			{
				OFFSET 0.019056 -0.420046 -0.034562
				CHANNELS 3 Zrotation Yrotation Xrotation
				JOINT rtoe
				{
					OFFSET -0.034840 -0.062106 0.130323
					CHANNELS 3 Zrotation Yrotation Xrotation
					End Site
					{
						OFFSET 0.000000 0.000000 0.000000
					}
				}
			}
		}
	}
	JOINT lowerback
	{
		OFFSET 0.004439 0.124404 -0.038385
		CHANNELS 3 Zrotation Yrotation Xrotation
		JOINT upperback
		{
			OFFSET 0.004488 0.137956 0.026820
			CHANNELS 3 Zrotation Yrotation Xrotation
			JOINT chest
			{
				OFFSET -0.002265 0.056032 0.002855
				CHANNELS 3 Zrotation Yrotation Xrotation
				JOINT lowerneck
				{
					OFFSET -0.013390 0.211636 -0.033468
					CHANNELS 3 Zrotation Yrotation Xrotation
					JOINT upperneck
					{
						OFFSET 0.010113 0.088937 0.050410
						CHANNELS 3 Zrotation Yrotation Xrotation
						End Site
						{
							OFFSET 0.000000 0.000000 0.000000
						}
					}
				}
				JOINT lclavicle
				{
					OFFSET 0.071702 0.114000 -0.018898
					CHANNELS 3 Zrotation Yrotation Xrotation
					JOINT lshoulder
					{
						OFFSET 0.122921 0.045205 -0.019046
						CHANNELS 3 Zrotation Yrotation Xrotation
						JOINT lelbow
						{
							OFFSET 0.255332 -0.015649 -0.022946
							CHANNELS 3 Zrotation Yrotation Xrotation
							JOINT lwrist
							{
								OFFSET 0.265709 0.012698 -0.007375
								CHANNELS 3 Zrotation Yrotation Xrotation
								End Site
								{
									OFFSET 0.000000 0.000000 0.000000
								}
							}
						}
					}
				}
				JOINT rclavicle
				{
					OFFSET -0.082954 0.112472 -0.023707
					CHANNELS 3 Zrotation Yrotation Xrotation
					JOINT rshoulder
					{
						OFFSET -0.113228 0.046853 -0.008472
						CHANNELS 3 Zrotation Yrotation Xrotation
						JOINT relbow
						{
							OFFSET -0.260127 -0.014369 -0.031269
							CHANNELS 3 Zrotation Yrotation Xrotation
							JOINT rwrist
							{
								OFFSET -0.269108 0.006794 -0.006027
								CHANNELS 3 Zrotation Yrotation Xrotation
								End Site
								{
									OFFSET 0.000000 0.000000 0.000000
								}
							}
						}
					}
				}
			}
		}
	}
}
MOTION
Frames: 17
Frame Time: 0.033333
-0.035862 -1.078661 0.988760 176.475657 -1.902576 85.660909 -3.800089 -0.279814 4.463270 -0.604744 -9.733986 5.349054 4.485580 12.007309 -15.361057 0.000000 -0.000000 0.000000 -1.785080 -3.684736 5.354208 -2.744474 -0.839429 2.573914 2.355307 -11.992515 -15.710545 0.000000 -0.000000 0.000000 -2.999894 4.889637 5.627154 -2.044152 -1.864478 13.914987 -1.194705 0.718040 -2.409331 2.994278 8.494375 -8.638848 5.963342 4.757471 1.738248 -29.225134 -8.878000 7.761492 -46.027697 -3.507275 9.098759 1.988471 -23.308853 2.909575 -2.707426 -2.653411 -0.398029 32.430460 14.715197 12.563056 53.214390 10.191670 11.509850 -9.437085 20.866441 -9.762844 3.155427 4.213889 -8.866320 
-0.038114 -1.074195 0.988392 175.980975 -1.728974 85.933076 -3.850167 -0.431313 4.320929 -0.758268 -9.621253 5.900360 4.599827 12.268510 -16.310227 0.000000 -0.000000 0.000000 -1.764482 -3.453093 5.287389 -2.735672 -0.865825 2.707320 2.498482 -11.873882 -16.334638 0.000000 -0.000000 0.000000 -2.951769 5.011426 5.889620 -2.126483 -1.674406 13.790064 -1.191689 0.805071 -2.327873 2.848102 8.665518 -8.992420 5.696663 4.689361 1.641460 -29.078000 -8.714134 8.012208 -46.576548 -2.869496 9.007785 1.674167 -23.178499 3.164029 -2.683489 -2.751551 -0.850274 32.567105 15.331727 12.567196 53.391420 11.114820 11.846217 -8.973681 21.346455 -8.932215 3.315996 4.268389 -8.418955 
-0.040825 -1.068174 0.987754 175.859797 -1.617775 86.341703 -4.031549 -0.759019 4.084359 -0.882596 -9.733954 6.515090 4.829223 12.556847 -17.228710 0.000000 -0.000000 0.000000 -1.768492 -3.330810 5.042599 -2.865558 -0.614162 3.131154 2.515186 -12.002880 -16.678346 0.000000 -0.000000 0.000000 -3.067861 5.075448 5.779516 -2.152723 -1.635073 13.821383 -1.171157 0.815389 -2.202118 2.694618 8.911647 -9.248994 5.515350 4.805987 1.502020 -29.040284 -8.308413 8.320944 -47.121431 -1.955552 8.853577 1.668182 -23.407102 3.259399 -2.874098 -2.863592 -1.255218 32.647337 15.749078 12.517081 53.649868 11.757973 12.178468 -8.848202 22.631436 -8.297825 3.357462 4.560444 -8.249760 
-0.043506 -1.060893 0.987157 175.670861 -1.302873 86.620485 -3.907171 -0.771535 4.240677 -1.019682 -9.780484 6.805157 4.988523 12.668031 -18.086864 0.000000 -0.000000 0.000000 -1.589587 -3.382535 5.135791 -2.983882 -0.386717 3.323073 2.603068 -11.965735 -16.981176 0.000000 -0.000000 0.000000 -2.987451 5.208729 5.726752 -2.105606 -1.512399 14.056205 -1.208866 0.825638 -2.203406 2.706661 9.151624 -9.574691 5.064052 4.745306 1.329621 -29.115535 -7.771800 8.530520 -47.488109 -0.865490 8.839604 1.318364 -24.220253 3.813354 -2.957070 -2.286324 -1.433140 32.740435 15.851279 12.329494 53.765455 12.203938 12.465937 -8.785210 24.392572 -7.718729 3.316736 4.391592 -7.962296 
-0.046593 -1.053068 0.986111 175.648764 -0.977791 86.991978 -3.778101 -0.770431 4.403312 -1.139503 -10.002011 6.909318 5.168544 12.842875 -18.787656 0.000000 -0.000000 0.000000 -1.357652 -3.252375 4.957816 -3.143073 -0.411627 3.974976 2.470472 -11.979678 -17.494865 0.000000 -0.000000 0.000000 -2.885770 5.141564 5.849427 -2.140395 -1.430387 13.948828 -1.218293 0.935572 -2.197988 2.598044 8.949300 -9.715084 4.926375 4.881690 1.115129 -29.277734 -7.236736 8.751465 -47.838874 0.237764 8.992340 1.285171 -24.685657 4.299300 -3.193315 -2.226278 -1.884073 32.644553 15.974409 12.164075 54.059026 12.442716 12.522833 -8.917934 26.388966 -8.354229 4.293830 5.207603 -10.222226 
-0.049552 -1.043571 0.984797 176.270643 -0.792019 87.211929 -3.722979 -0.751209 4.919535 -1.259279 -10.632933 6.822190 5.214704 12.988196 -19.417232 0.000000 -0.000000 0.000000 -1.152613 -3.163954 4.483295 -3.376783 -0.428212 5.871301 2.206427 -12.602484 -18.318604 0.000000 -0.000000 0.000000 -3.087500 4.897003 6.053560 -2.113137 -1.453097 13.700931 -1.109152 0.756943 -1.861447 2.608306 8.537065 -10.038356 4.844713 5.230782 1.014641 -29.344769 -6.676554 9.084520 -48.243515 1.117317 9.242587 1.314150 -25.193364 4.770845 -3.125221 -2.055913 -2.779012 32.461066 15.949691 11.706971 54.534517 12.720381 12.419711 -9.210640 27.682906 -10.261582 4.709725 5.974138 -14.288249 
-0.052863 -1.033746 0.983165 176.718556 -0.565764 87.319892 -3.648873 -0.677189 5.580767 -1.356114 -11.149446 6.725666 5.445442 13.181425 -19.876499 0.000000 -0.000000 0.000000 -1.131508 -2.956353 3.411299 -3.274377 -0.716630 9.125774 1.842923 -12.910419 -19.133588 0.000000 -0.000000 0.000000 -3.197379 4.544840 6.557861 -2.075910 -1.378310 13.370160 -1.092437 0.583473 -1.584979 2.895810 8.324963 -10.321130 4.806038 5.275156 1.040000 -29.303875 -6.268308 9.267221 -48.767533 1.789785 9.172223 1.557617 -25.156578 4.603613 -2.955917 -1.906020 -3.626115 32.147177 15.827753 11.215956 55.013863 12.939461 12.288642 -9.911808 28.646840 -11.665136 4.915897 6.352763 -16.881301 
-0.056151 -1.022834 0.981194 177.129274 -0.601147 87.392070 -3.971007 -0.573349 6.488278 -1.364688 -11.839033 6.413299 5.904072 13.607079 -20.226285 0.000000 -0.000000 0.000000 -1.228822 -2.425611 1.276833 -3.276256 -1.256769 14.514522 1.187230 -13.692014 -20.153523 0.000000 -0.000000 0.000000 -3.392133 3.965084 7.247090 -2.136848 -1.258047 13.082714 -1.294534 0.414630 -1.349952 3.184036 8.117236 -10.799279 4.760040 5.297889 1.102830 -29.528655 -5.976639 9.294304 -48.883359 2.267085 8.690907 1.995852 -24.925336 3.329763 -2.750321 -1.731503 -4.236669 32.150196 15.798854 10.704182 55.113164 12.799985 12.266322 -10.774710 29.838443 -12.165796 4.471766 6.563692 -17.192107 
-0.059489 -1.011493 0.978677 177.334952 -0.794347 88.526522 -5.134300 -3.264304 6.740803 -1.031451 -12.268706 5.573633 6.511826 16.894621 -21.374925 0.000000 -0.000000 0.000000 -1.311019 0.453176 -2.857115 -1.857444 -0.704574 21.541182 0.847897 -19.399007 -22.018753 0.000000 -0.000000 0.000000 -3.878544 2.672165 5.970386 -1.864410 -0.567890 12.561958 -1.707035 0.580654 0.767241 4.160861 9.585425 -11.657123 2.666506 3.354812 0.247779 -30.744401 -5.326808 9.207391 -47.346055 1.190911 8.833413 1.247471 -24.782131 4.668373 2.952089 0.117629 -8.475696 32.658669 14.139789 12.342828 54.208874 14.992094 14.659428 -13.995254 32.640009 -13.299439 2.102338 1.843100 -19.803932 
-0.062062 -0.998573 0.977236 177.599478 -0.763811 88.730531 -5.439660 -3.638570 8.106001 -0.865343 -12.979760 4.461701 6.808659 17.920930 -21.542690 0.000000 -0.000000 0.000000 -1.396656 1.368429 -6.688784 -1.518025 -2.703497 29.117694 0.446226 -21.295996 -21.805659 0.000000 -0.000000 0.000000 -3.977779 1.636019 6.801955 -1.957112 -0.270470 12.338461 -1.814273 0.474690 0.810918 4.154759 9.730194 -11.801979 2.493414 3.218221 -0.429134 -31.032316 -5.430798 9.160998 -47.085742 0.664817 8.158899 2.140623 -24.631679 2.076848 4.016114 0.573024 -10.029758 32.420404 13.753541 12.369758 54.109345 14.436209 15.135360 -15.088247 34.338625 -13.123740 0.682641 1.688701 -18.867047 
-0.064049 -0.984555 0.975963 178.300974 -0.570483 89.070195 -5.317088 -3.437633 9.340204 -0.623192 -14.091791 3.368548 6.909787 18.353037 -21.766967 0.000000 -0.000000 0.000000 -1.326818 1.703623 -10.736987 -0.794710 -4.320612 35.040637 -0.052378 -21.377365 -21.884854 0.000000 -0.000000 0.000000 -3.811993 0.568100 7.683620 -1.989063 -0.284541 12.225605 -1.842191 0.057442 0.741834 3.896525 9.577446 -11.902075 2.560642 3.427962 -1.070163 -31.206200 -5.973218 9.101420 -46.789491 -0.172832 7.629320 3.507519 -25.499609 -1.483193 5.556994 1.109603 -10.820923 32.000099 13.586605 12.190730 53.926299 13.173765 15.189022 -15.528599 36.013655 -13.052533 -0.504680 1.562660 -18.036711 
-0.065537 -0.968668 0.974270 179.329034 -0.329516 89.455515 -4.910965 -2.807327 10.593632 -0.266072 -15.415724 2.290400 6.698532 18.116545 -22.247688 0.000000 -0.000000 0.000000 -1.093534 1.564197 -14.693354 -0.167641 -5.803443 38.451929 0.280994 -20.274959 -21.849475 0.000000 -0.000000 0.000000 -3.643390 -0.496191 8.657458 -1.933509 -0.514974 12.060048 -1.724030 -0.357511 0.542882 3.586231 9.676875 -12.006059 2.739246 3.385945 -1.406129 -31.098371 -6.664029 8.938098 -46.484034 -1.453167 7.478148 5.117220 -27.626049 -4.075853 7.908585 1.370633 -11.454728 31.809167 13.051923 12.212394 53.462518 11.516827 14.851515 -15.624361 37.656952 -12.622060 -2.050615 1.837074 -17.559281 
-0.066304 -0.951011 0.971662 -179.601542 -0.038665 89.987587 -4.298002 -2.360988 11.598272 -0.054786 -16.413743 1.641944 6.359403 17.630636 -22.976354 0.000000 -0.000000 0.000000 -0.689083 1.635824 -18.680468 0.096014 -7.280531 40.185356 0.537164 -19.238564 -21.646977 0.000000 -0.000000 0.000000 -3.508541 -1.437723 9.664457 -1.733292 -0.639855 11.736796 -1.454205 -0.842591 0.350688 3.106757 9.837627 -12.141357 3.032970 3.202405 -1.956036 -31.028121 -7.278400 8.793121 -45.831807 -3.184392 7.481624 7.366846 -31.643484 -6.216879 8.678739 1.055063 -12.376928 31.731606 12.183217 12.578587 52.914208 9.689693 14.303742 -15.817012 39.139120 -12.253782 -3.952625 2.138513 -17.380873 
-0.066632 -0.931952 0.967986 -178.612621 0.155717 90.519512 -3.787271 -2.169647 12.543644 -0.012652 -17.463064 1.357708 6.285060 17.613455 -23.768871 0.000000 -0.000000 0.000000 -0.462318 2.016260 -22.658894 0.276060 -8.689368 40.803549 0.846333 -19.011499 -21.533617 0.000000 -0.000000 0.000000 -3.464644 -2.503939 10.892388 -1.624606 -0.660955 11.146978 -1.162390 -1.196852 0.364652 2.610344 9.618009 -12.368306 3.493759 3.597575 -2.724001 -30.954311 -7.709621 8.409087 -44.782168 -5.252828 7.759653 10.575459 -37.522078 -9.229734 10.230576 1.385955 -13.611182 31.896787 11.410071 12.982731 52.342537 7.581601 13.935393 -16.510277 40.259245 -13.171445 -4.974599 2.366369 -17.226098 
-0.066826 -0.910149 0.962605 -177.577066 0.190412 91.008321 -3.383583 -1.985106 13.851893 0.117587 -18.468853 0.804341 6.446457 17.514221 -24.357653 0.000000 -0.000000 0.000000 -0.578517 2.372201 -26.464193 0.481142 -9.955367 40.931182 0.962370 -18.975500 -21.327350 0.000000 -0.000000 0.000000 -3.459446 -3.502353 11.689237 -1.490152 -0.536582 11.292657 -0.965759 -1.740351 0.358454 2.388183 9.532766 -13.248253 3.759880 3.653071 -3.005457 -30.594453 -7.975923 7.947712 -43.894174 -7.866092 8.360463 15.844744 -44.890806 -12.535021 11.619614 0.471712 -15.242263 31.896185 10.360223 13.234474 52.056957 5.721478 13.769356 -17.205165 40.937106 -14.057689 -5.958460 2.384229 -17.673343 
-0.066836 -0.885647 0.955914 -176.474796 0.237026 91.478376 -2.743428 -1.347469 15.401070 0.391640 -19.478057 0.139371 6.371967 16.840217 -24.860992 0.000000 -0.000000 0.000000 -0.756956 2.345643 -29.957068 0.402473 -11.112671 40.824223 1.355932 -18.036879 -21.214306 0.000000 -0.000000 0.000000 -3.307837 -4.386156 12.531099 -1.439678 -0.394027 11.222540 -0.738942 -2.102045 0.162760 1.921430 9.649949 -13.333723 4.415864 3.570628 -3.584427 -29.755613 -8.557946 7.386637 -43.617779 -10.578241 8.897075 23.802893 -52.771583 -17.380044 12.615659 0.634583 -15.993167 31.466247 9.396340 13.387865 52.504110 3.363977 13.009705 -17.637534 41.223951 -14.275090 -7.514597 1.962086 -18.004902 
-0.066204 -0.858585 0.948348 -175.138218 0.202688 92.096072 -2.017619 -1.026639 17.080069 0.671196 -20.468485 -0.707172 6.430953 16.292067 -25.573119 0.000000 -0.000000 0.000000 -1.209892 2.194280 -33.168928 0.561708 -11.873517 40.435160 1.489879 -17.407302 -20.785507 0.000000 -0.000000 0.000000 -3.169432 -5.399027 13.152146 -1.403292 -0.312640 10.976592 -0.498604 -2.542492 0.203062 1.587454 9.205200 -13.498873 4.928697 3.910241 -3.909055 -28.847470 -9.137561 6.901588 -43.215889 -13.438850 9.280543 36.714495 -60.759126 -26.800531 12.806884 0.517201 -17.391667 30.807328 8.467201 13.400008 53.488658 1.098772 11.959358 -18.935316 41.002897 -14.885567 -6.329935 2.664062 -17.433368 
